<svg width="105" height="54" viewBox="0 0 105 54" fill="none" xmlns="http://www.w3.org/2000/svg">
<path d="M11.7187 15.8368H5.39984L3.65229 30.0832H0.296143L2.35615 13.3023H12.0312L11.7187 15.8368ZM16.0422 15.9178L15.4983 20.3619H20.5557L20.2201 22.8964H15.1857L14.6187 27.4562H21.1574L20.8334 30.0832H10.9269L12.9985 13.2907H22.8818L22.5462 15.9178H16.0422ZM28.5094 21.7043C29.0804 21.7043 29.5665 21.6195 29.9676 21.4498C30.3766 21.28 30.7083 21.0447 30.9629 20.7438C31.2175 20.4351 31.4027 20.0725 31.5184 19.6559C31.6419 19.2316 31.7036 18.7648 31.7036 18.2556C31.7036 17.9006 31.6534 17.5766 31.5532 17.2835C31.4528 16.9825 31.2985 16.7241 31.0902 16.5081C30.8896 16.292 30.6312 16.1261 30.3149 16.0104C30.0062 15.8947 29.6397 15.8368 29.2154 15.8368H27.2711L26.542 21.7043H28.5094ZM29.5394 13.2907C30.5116 13.2907 31.3448 13.4103 32.0392 13.6495C32.7336 13.881 33.3045 14.205 33.752 14.6216C34.2073 15.0383 34.539 15.532 34.7473 16.103C34.9633 16.6739 35.0713 17.295 35.0713 17.9663C35.0713 18.8766 34.9286 19.7176 34.6431 20.4892C34.3654 21.253 33.941 21.9165 33.3701 22.4797C32.8069 23.0352 32.0932 23.4712 31.2291 23.7875C30.365 24.1038 29.3504 24.262 28.1854 24.262H26.2295L25.512 30.0832H22.179L24.2274 13.2907H29.5394ZM50.8421 20.5818C50.8421 21.4999 50.738 22.3794 50.5297 23.2204C50.3214 24.0537 50.0245 24.8291 49.6389 25.5466C49.2604 26.2641 48.7975 26.9122 48.25 27.4909C47.702 28.0695 47.0891 28.5672 46.4102 28.9838C45.7389 29.3927 45.0058 29.7091 44.2108 29.9328C43.4242 30.1566 42.5947 30.2684 41.7228 30.2684C40.6349 30.2684 39.6589 30.0794 38.7948 29.7013C37.9307 29.3156 37.1978 28.7909 36.5959 28.1274C35.9941 27.4562 35.5312 26.6653 35.2072 25.7549C34.8831 24.8445 34.7211 23.8608 34.7211 22.8038C34.7211 21.8856 34.8252 21.01 35.0335 20.1767C35.2419 19.3357 35.5351 18.5565 35.9131 17.8389C36.2989 17.1214 36.7657 16.4734 37.3134 15.8947C37.8612 15.3083 38.4707 14.8107 39.142 14.4017C39.821 13.9851 40.5539 13.665 41.3409 13.4412C42.1353 13.2174 42.969 13.1055 43.8407 13.1055C44.9285 13.1055 45.9044 13.2985 46.7684 13.6842C47.633 14.07 48.3655 14.5985 48.9677 15.2697C49.5693 15.941 50.0322 16.7318 50.3565 17.6422C50.6802 18.5526 50.8421 19.5325 50.8421 20.5818ZM47.4051 20.6628C47.4051 19.9375 47.3164 19.2779 47.1391 18.6838C46.9618 18.082 46.6993 17.5728 46.3518 17.1561C46.0127 16.7318 45.5961 16.4039 45.1022 16.1724C44.6161 15.941 44.0603 15.8252 43.4355 15.8252C42.6256 15.8252 41.8925 15.9911 41.2367 16.3229C40.5886 16.6546 40.0331 17.1214 39.5702 17.7232C39.115 18.325 38.7639 19.0503 38.517 19.8989C38.2701 20.7477 38.1467 21.6889 38.1467 22.7228C38.1467 23.4557 38.2355 24.1193 38.4129 24.7133C38.5903 25.2997 38.845 25.8051 39.1767 26.2294C39.5162 26.6538 39.929 26.9817 40.415 27.2131C40.9088 27.4369 41.4682 27.5487 42.0931 27.5487C42.9035 27.5487 43.636 27.3867 44.2918 27.0626C44.9481 26.7309 45.5033 26.2642 45.9585 25.6623C46.4215 25.0605 46.7761 24.3392 47.0231 23.4982C47.2777 22.6495 47.4051 21.7043 47.4051 20.6628ZM66.4044 13.2907L64.3444 30.0832H60.9883L62.1802 20.1767C62.2343 19.7755 62.2998 19.3511 62.3772 18.9037C62.4539 18.4562 62.558 17.9856 62.6896 17.4917C62.4735 17.9315 62.2498 18.3404 62.0183 18.7185C61.7869 19.0966 61.5667 19.4283 61.3584 19.7138L55.1205 29.0648C55.0283 29.1883 54.9241 29.3117 54.8081 29.4352C54.6927 29.5509 54.5653 29.6589 54.4261 29.7592C54.2874 29.8518 54.1405 29.9289 53.9863 29.9907C53.84 30.0524 53.6852 30.0832 53.5234 30.0832H51.0004L53.0604 13.2907H56.4284L55.2246 23.1973C55.1705 23.6062 55.1015 24.0382 55.0164 24.4935C54.939 24.9409 54.8349 25.4154 54.704 25.9169C54.92 25.4772 55.1437 25.0644 55.3752 24.6786C55.6067 24.2851 55.8304 23.9457 56.0464 23.6602L62.2843 14.3092C62.3772 14.1857 62.4813 14.0661 62.5967 13.9504C62.7128 13.8269 62.8401 13.7189 62.9788 13.6263C63.1174 13.5261 63.2602 13.445 63.4072 13.3833C63.5613 13.3216 63.7196 13.2907 63.8814 13.2907H66.4044ZM60.0624 10.7794C60.3171 10.7794 60.5289 10.7562 60.6985 10.7099C60.8764 10.656 61.0192 10.5634 61.127 10.4322C61.243 10.301 61.3316 10.1274 61.3929 9.91143C61.4548 9.68764 61.5048 9.40219 61.5435 9.05498H63.2798C63.4804 9.05498 63.619 9.14757 63.6964 9.33275C63.7809 9.51793 63.8118 9.71465 63.7886 9.92298C63.7428 10.3242 63.6113 10.6752 63.3953 10.9761C63.187 11.277 62.9133 11.5316 62.5735 11.74C62.2343 11.9406 61.8368 12.091 61.3816 12.1913C60.9264 12.2916 60.429 12.3417 59.8886 12.3417C59.3483 12.3417 58.8586 12.2916 58.4189 12.1913C57.9869 12.091 57.6245 11.9406 57.3311 11.74C57.0378 11.5316 56.8218 11.277 56.6831 10.9761C56.5439 10.6752 56.4981 10.3242 56.5439 9.92298C56.5593 9.71465 56.6248 9.51793 56.7408 9.33275C56.864 9.14757 57.0265 9.05498 57.227 9.05498H58.9627C58.9241 9.40219 58.9128 9.68764 58.9282 9.91143C58.9437 10.1274 58.9901 10.301 59.0669 10.4322C59.152 10.5634 59.2752 10.656 59.4376 10.7099C59.5995 10.7562 59.8077 10.7794 60.0624 10.7794Z" fill="black"/>
<path d="M14.4882 45.3862C15.1411 45.3862 15.7172 45.2862 16.2165 45.0869C16.7158 44.8869 17.1344 44.6102 17.4724 44.2568C17.8104 43.8962 18.0677 43.4695 18.2443 42.978C18.421 42.4788 18.5093 41.9373 18.5093 41.3535C18.5093 40.9078 18.444 40.5085 18.3135 40.1551C18.1829 39.8016 17.987 39.5023 17.7259 39.2566C17.4647 39.0031 17.1344 38.8109 16.7349 38.6805C16.3355 38.5419 15.8708 38.4729 15.3408 38.4729H12.9442L12.0916 45.3862H14.4882ZM15.5482 36.7794C16.4239 36.7794 17.1843 36.8829 17.8295 37.0906C18.4748 37.2976 19.0048 37.5934 19.4196 37.9778C19.8421 38.3616 20.157 38.8228 20.3644 39.3601C20.5718 39.898 20.6755 40.4972 20.6755 41.1577C20.6755 42.0253 20.5334 42.8245 20.2492 43.554C19.9649 44.2764 19.5502 44.8982 19.0048 45.4207C18.4671 45.9431 17.7988 46.3537 17 46.6536C16.2088 46.9452 15.3024 47.0916 14.2808 47.0916H11.8842L11.1238 53.2902H8.98071L10.997 36.7794H15.5482ZM29.4048 47.1719L27.8839 40.3395C27.8455 40.1319 27.7994 39.8939 27.7456 39.6255C27.6995 39.3565 27.6535 39.0644 27.6074 38.7496C27.4922 39.0644 27.377 39.3565 27.2617 39.6255C27.1542 39.8939 27.0543 40.136 26.9621 40.3509L23.759 47.1719H29.4048ZM32.9881 53.2902H31.3174C31.1254 53.2902 30.9756 53.2444 30.8681 53.1522C30.7605 53.0522 30.6876 52.9255 30.6492 52.7719L29.7504 48.7393H23.0217L21.132 52.7719C21.0706 52.91 20.9669 53.0332 20.8209 53.1403C20.675 53.2403 20.5137 53.2902 20.337 53.2902H18.6664L26.7548 36.7794H28.9439L32.9881 53.2902ZM49.2742 36.7794L47.2576 53.2902H45.0916L46.5203 41.6528C46.559 41.3303 46.609 40.9923 46.6703 40.6389C46.7316 40.286 46.8125 39.9093 46.9125 39.51C46.7512 39.8558 46.5822 40.1783 46.4055 40.4776C46.2288 40.7698 46.0556 41.031 45.8866 41.2613L37.5219 52.6107C37.3989 52.7797 37.2453 52.9368 37.0609 53.0826C36.8766 53.2212 36.6731 53.2902 36.4503 53.2902H34.8603L36.8881 36.7794H39.0542L37.6255 48.4162C37.5871 48.7393 37.5372 49.0773 37.4757 49.4301C37.4143 49.7759 37.3336 50.1448 37.2338 50.5363C37.5795 49.8526 37.9213 49.2808 38.2592 48.8196L46.6245 37.4589C46.7548 37.2899 46.9083 37.1364 47.085 36.9983C47.2695 36.852 47.4653 36.7794 47.6729 36.7794H49.2742ZM43.3636 34.6479C43.6552 34.6479 43.9051 34.6134 44.1122 34.5438C44.3198 34.4747 44.4924 34.3635 44.631 34.2099C44.7768 34.0564 44.8881 33.8565 44.9649 33.6107C45.0494 33.3572 45.1148 33.046 45.1606 32.6777H46.2555C46.3859 32.6777 46.4823 32.7425 46.5435 32.8734C46.6048 32.996 46.6245 33.1382 46.6013 33.2995C46.5168 34.06 46.1788 34.6515 45.5873 35.0739C44.9958 35.4887 44.2163 35.6964 43.2481 35.6964C42.2729 35.6964 41.5392 35.4887 41.0475 35.0739C40.556 34.6592 40.3563 34.0677 40.4484 33.2995C40.4638 33.1382 40.5098 32.996 40.5867 32.8734C40.6712 32.7425 40.7826 32.6777 40.9208 32.6777H42.0152C41.9771 33.046 41.9694 33.3572 41.9926 33.6107C42.0229 33.8565 42.092 34.0564 42.1997 34.2099C42.3074 34.3635 42.4532 34.4747 42.6376 34.5438C42.8298 34.6134 43.0714 34.6479 43.3636 34.6479ZM66.2338 43.8652C66.2338 45.2707 66.0148 46.5614 65.5768 47.7366C65.1466 48.9119 64.5438 49.9258 63.7679 50.7785C62.9997 51.6235 62.0857 52.284 61.0259 52.76C59.9732 53.2289 58.8248 53.4628 57.5805 53.4628C56.5666 53.4628 55.6526 53.2825 54.8386 52.9213C54.0317 52.5607 53.3408 52.0615 52.7642 51.4236C52.1959 50.7785 51.758 50.0139 51.4509 49.1308C51.1516 48.2472 51.0017 47.2796 51.0017 46.227C51.0017 44.8215 51.2206 43.5314 51.6586 42.3562C52.096 41.1732 52.7029 40.1551 53.4789 39.3024C54.2548 38.4497 55.1688 37.7856 56.2209 37.3095C57.2812 36.8329 58.4297 36.5949 59.6662 36.5949C60.6802 36.5949 61.59 36.7794 62.3969 37.1477C63.2109 37.5089 63.9024 38.0123 64.4706 38.6573C65.0389 39.3024 65.4733 40.0706 65.7726 40.962C66.0803 41.845 66.2338 42.8132 66.2338 43.8652ZM64.0214 43.9116C64.0214 43.0744 63.9137 42.3175 63.6989 41.6415C63.4835 40.9578 63.1764 40.3782 62.7771 39.9016C62.3856 39.4256 61.9012 39.0566 61.3252 38.7954C60.7569 38.5342 60.1155 38.4038 59.4014 38.4038C58.4945 38.4038 57.6615 38.5883 56.901 38.9567C56.1483 39.3178 55.4949 39.8367 54.9421 40.5121C54.397 41.1881 53.9704 42.0063 53.6633 42.9667C53.3634 43.9188 53.2141 44.9869 53.2141 46.1699C53.2141 47.0071 53.3176 47.7634 53.5247 48.4394C53.7401 49.1154 54.0471 49.6914 54.4464 50.168C54.8463 50.644 55.3301 51.013 55.8983 51.2736C56.4666 51.5271 57.1081 51.6538 57.8227 51.6538C58.7367 51.6538 59.574 51.4735 60.3344 51.1123C61.0949 50.7517 61.7477 50.237 62.2934 49.5688C62.8384 48.8928 63.2609 48.0782 63.5608 47.1261C63.8679 46.1657 64.0214 45.094 64.0214 43.9116ZM82.3668 36.7794L80.3276 53.2902H78.1616L79.0833 45.7551H71.0293L70.1076 53.2902H67.9416L69.9695 36.7794H72.1355L71.2251 44.1877H79.2791L80.1895 36.7794H82.3668ZM93.0242 47.1719L91.5032 40.3395C91.4645 40.1319 91.4187 39.8939 91.3646 39.6255C91.3187 39.3565 91.2729 39.0644 91.2265 38.7496C91.1111 39.0644 90.9962 39.3565 90.8808 39.6255C90.7731 39.8939 90.6737 40.136 90.5815 40.3509L87.3783 47.1719H93.0242ZM96.6076 53.2902H94.9367C94.7445 53.2902 94.5951 53.2444 94.4874 53.1522C94.3797 53.0522 94.3065 52.9255 94.2684 52.7719L93.3699 48.7393H86.6411L84.7512 52.7719C84.6899 52.91 84.5863 53.0332 84.44 53.1403C84.2942 53.2403 84.1329 53.2902 83.9562 53.2902H82.2853L90.3738 36.7794H92.563L96.6076 53.2902Z" fill="#130303"/>
<path fill-rule="evenodd" clip-rule="evenodd" d="M88.998 0.330704L89.7448 2.00714L91.7442 2.12936L90.2065 3.28763L90.6951 5.03958L89.8983 4.58853L91.0914 9.86794L91.1057 9.93268V9.99909V11.7329L92.4404 13.0455L92.6183 13.2204V13.4698V15.8496H93.4847L94.0583 13.5722H95.2127L95.7869 15.8496H97.1103H97.7054V16.4446V18.8245H99.678V17.5602V17.4187L99.7416 17.2923L101.117 14.5653L101.648 13.5116L102.179 14.5653L103.554 17.2923L103.618 17.4187V17.5602V19.6674H102.428V17.7017L101.815 16.4871L101.648 16.3207L101.45 16.5476L100.868 17.7017V19.4195V20.0146H100.273H97.1103H96.5153V19.4195V17.0397H95.3228H94.8592L94.7462 16.5901L94.6355 16.1519L94.5248 16.5901L94.4118 17.0397H93.9482H92.0232H91.4282V16.4446V13.7192L90.0935 12.4066L89.9156 12.2317V11.9823V10.0654L89.5472 8.43446L88.9343 7.18194L88.3107 8.58091L87.9436 10.0713V11.8584V12.1231L87.7466 12.3003L86.156 13.7345V16.4446V17.0397H85.561H84.1858H83.7443L83.6164 16.6169L83.3176 15.6288L82.9594 16.6427L82.8196 17.0397H82.3983H81.3433V19.6674V20.2625H80.7482H77.4487H76.8536V19.6674V17.6911L76.0568 15.9676L76.0122 16.0186L75.1559 17.7028V20.0393H73.9658V17.5602V17.4177L74.0307 17.2905L75.5433 14.3156L76.0991 13.2222L76.6138 14.3357L77.989 17.3105L78.0437 17.4294V17.5602V19.0724H80.1532V16.4446V15.8496H80.7482H81.9776L82.8 13.5196L83.4045 11.8065L83.9305 13.5454L84.6274 15.8496H84.9659V13.4698V13.205L85.1623 13.0278L86.7535 11.5936V9.99909V9.92679L86.7707 9.85663L88.0644 4.60739L87.3009 5.03958L87.79 3.28763L86.2518 2.12936L88.2512 2.00714L88.998 0.330704Z" fill="#FF0000"/>
<path d="M104.25 29.4882H72.712V30.0833H104.25V29.4882Z" fill="#FF0000"/>
<path d="M104.25 30.0833H72.712V30.6783H104.25V30.0833Z" fill="white"/>
<path d="M104.25 30.6782H72.712V31.2733H104.25V30.6782Z" fill="#2C64D1"/>
<path d="M80.7958 21.7341L80.0585 27.703H79.3795L79.921 23.2919C79.9294 23.2364 79.9389 23.1753 79.9502 23.1087C79.9639 23.042 79.9793 22.9726 79.996 22.9004L77.6676 26.6534C77.5956 26.7728 77.4956 26.8325 77.3677 26.8325H77.2552C77.1939 26.8325 77.1398 26.8172 77.0928 26.7867C77.0481 26.7561 77.0166 26.7117 76.997 26.6534L75.5557 22.9004C75.5528 22.967 75.5504 23.0337 75.5474 23.1003C75.5444 23.1642 75.5403 23.2239 75.5349 23.2794L74.9976 27.703H74.3103L75.0434 21.7341H75.6182C75.6878 21.7341 75.7378 21.7438 75.7682 21.7633C75.7985 21.7799 75.8336 21.8146 75.8723 21.8674L77.3177 25.6204C77.3373 25.6759 77.354 25.7315 77.3677 25.787C77.3814 25.8425 77.3956 25.8995 77.4093 25.9578C77.4373 25.8995 77.4647 25.8425 77.4926 25.787C77.5206 25.7315 77.5509 25.6759 77.5843 25.6204L79.9335 21.8674C79.9805 21.8119 80.0222 21.7757 80.0585 21.7591C80.0948 21.7424 80.1472 21.7341 80.2168 21.7341H80.7958ZM86.917 24.2958C86.917 24.804 86.8379 25.2705 86.6796 25.6953C86.5243 26.1202 86.3065 26.4868 86.0257 26.795C85.7484 27.1004 85.4175 27.3393 85.0343 27.5114C84.6541 27.6809 84.2387 27.7655 83.7889 27.7655C83.4223 27.7655 83.0921 27.7003 82.7975 27.5698C82.5059 27.4393 82.256 27.2587 82.0477 27.0283C81.8425 26.795 81.6842 26.5187 81.5729 26.1994C81.4646 25.88 81.4104 25.5301 81.4104 25.1497C81.4104 24.6415 81.4896 24.175 81.6479 23.7501C81.8062 23.3225 82.0257 22.9545 82.306 22.6463C82.5869 22.3381 82.9171 22.0978 83.2974 21.9257C83.6806 21.7536 84.0959 21.6674 84.5428 21.6674C84.9093 21.6674 85.2384 21.7341 85.53 21.8674C85.8245 21.9979 86.0745 22.1798 86.2797 22.413C86.4856 22.6463 86.6421 22.924 86.7504 23.2461C86.8617 23.5655 86.917 23.9154 86.917 24.2958ZM86.1173 24.3125C86.1173 24.0097 86.0786 23.7363 86.0007 23.4919C85.9233 23.2447 85.812 23.0351 85.6674 22.8629C85.5258 22.6908 85.3509 22.5575 85.1426 22.463C84.9373 22.3686 84.7052 22.3214 84.447 22.3214C84.1197 22.3214 83.818 22.3881 83.5431 22.5213C83.2712 22.6518 83.0349 22.8393 82.835 23.0837C82.638 23.3281 82.4839 23.6238 82.3726 23.9709C82.2643 24.3152 82.2102 24.7012 82.2102 25.1289C82.2102 25.4316 82.2477 25.705 82.3227 25.9494C82.4006 26.1938 82.5119 26.4021 82.6559 26.5742C82.8005 26.7464 82.9754 26.8797 83.1807 26.9741C83.3866 27.0658 83.6181 27.1116 83.8763 27.1116C84.2072 27.1116 84.5095 27.0463 84.7844 26.9158C85.0593 26.7853 85.2955 26.5992 85.4925 26.3576C85.6901 26.1133 85.8424 25.8189 85.9507 25.4746C86.062 25.1275 86.1173 24.7401 86.1173 24.3125ZM88.9718 22.3714L88.726 24.3833H90.8378L90.7587 24.9956H88.651L88.3969 27.0699H91.0169L90.9378 27.703H87.5347L88.2678 21.7341H91.6667L91.5876 22.3714H88.9718ZM95.9077 22.3506H93.371L92.7128 27.703H91.9298L92.6629 21.7383H95.9826L95.9077 22.3506ZM101.311 24.2958C101.311 24.804 101.232 25.2705 101.074 25.6953C100.918 26.1202 100.7 26.4868 100.42 26.795C100.142 27.1004 99.8118 27.3393 99.4286 27.5114C99.0478 27.6809 98.633 27.7655 98.1831 27.7655C97.8166 27.7655 97.4858 27.7003 97.1918 27.5698C96.9002 27.4393 96.6503 27.2587 96.442 27.0283C96.2361 26.795 96.0779 26.5187 95.9672 26.1994C95.8589 25.88 95.8047 25.5301 95.8047 25.1497C95.8047 24.6415 95.8839 24.175 96.0422 23.7501C96.2004 23.3225 96.4194 22.9545 96.7003 22.6463C96.9806 22.3381 97.3108 22.0978 97.6916 21.9257C98.0748 21.7536 98.4896 21.6674 98.9371 21.6674C99.3036 21.6674 99.6327 21.7341 99.9243 21.8674C100.218 21.9979 100.468 22.1798 100.674 22.413C100.879 22.6463 101.036 22.924 101.145 23.2461C101.255 23.5655 101.311 23.9154 101.311 24.2958ZM100.512 24.3125C100.512 24.0097 100.472 23.7363 100.395 23.4919C100.317 23.2447 100.206 23.0351 100.062 22.8629C99.9201 22.6908 99.7452 22.5575 99.5369 22.463C99.331 22.3686 99.0995 22.3214 98.8413 22.3214C98.5134 22.3214 98.2123 22.3881 97.9374 22.5213C97.6649 22.6518 97.4292 22.8393 97.2293 23.0837C97.0317 23.3281 96.8776 23.6238 96.7669 23.9709C96.6586 24.3152 96.6045 24.7012 96.6045 25.1289C96.6045 25.4316 96.642 25.705 96.7169 25.9494C96.7943 26.1938 96.9056 26.4021 97.0502 26.5742C97.1942 26.7464 97.3691 26.8797 97.575 26.9741C97.7803 27.0658 98.0124 27.1116 98.2706 27.1116C98.6009 27.1116 98.9038 27.0463 99.1787 26.9158C99.4536 26.7853 99.6892 26.5992 99.8868 26.3576C100.084 26.1133 100.237 25.8189 100.345 25.4746C100.456 25.1275 100.512 24.7401 100.512 24.3125Z" fill="black"/>
</svg>
